<svg width="199" height="52" viewBox="0 0 199 52" fill="none" xmlns="http://www.w3.org/2000/svg">
<path d="M52.278 37V22.492H47.572V18.54H61.196V22.492H56.438V37H52.278ZM67.0868 37H63.1608V17.5H67.0868V25.326C67.8322 24.2513 69.0368 23.714 70.7008 23.714C72.2782 23.714 73.5088 24.2427 74.3928 25.3C75.2942 26.3573 75.7448 27.7527 75.7448 29.486V37H71.8188V30.162C71.8188 28.238 71.1168 27.276 69.7128 27.276C68.9328 27.276 68.3002 27.562 67.8148 28.134C67.3295 28.706 67.0868 29.5553 67.0868 30.682V37ZM84.9115 37.286C82.9008 37.286 81.2455 36.6447 79.9455 35.362C78.6628 34.0793 78.0215 32.45 78.0215 30.474C78.0215 28.5327 78.6715 26.9207 79.9715 25.638C81.2888 24.3553 82.9355 23.714 84.9115 23.714C85.8648 23.714 86.7575 23.8787 87.5895 24.208C88.4388 24.5373 89.1841 25.014 89.8255 25.638C90.4841 26.262 90.9955 27.068 91.3595 28.056C91.7235 29.044 91.8881 30.162 91.8535 31.41H81.8435C81.9128 32.1207 82.2248 32.7187 82.7795 33.204C83.3341 33.672 84.1141 33.906 85.1195 33.906C85.6915 33.906 86.2115 33.7933 86.6795 33.568C87.1475 33.3253 87.4595 33.0307 87.6155 32.684H91.7235C91.3075 34.0533 90.4755 35.1627 89.2275 36.012C87.9795 36.8613 86.5408 37.286 84.9115 37.286ZM84.8075 26.834C84.0621 26.834 83.4381 27.0247 82.9355 27.406C82.4501 27.7873 82.1208 28.29 81.9475 28.914H87.5115C87.3208 28.2033 86.9655 27.6833 86.4455 27.354C85.9428 27.0073 85.3968 26.834 84.8075 26.834ZM100.468 37V18.54H107.41C108.918 18.54 110.209 19.0773 111.284 20.152C112.358 21.2093 112.896 22.5007 112.896 24.026C112.896 25.2567 112.454 26.314 111.57 27.198C112.367 27.614 113 28.2033 113.468 28.966C113.953 29.7287 114.196 30.5953 114.196 31.566C114.196 33.0913 113.658 34.3827 112.584 35.44C111.509 36.48 110.174 37 108.58 37H100.468ZM104.602 33.204H108.242C108.796 33.204 109.256 33.0307 109.62 32.684C109.984 32.32 110.166 31.878 110.166 31.358C110.166 30.838 109.975 30.4047 109.594 30.058C109.23 29.694 108.77 29.512 108.216 29.512H104.602V33.204ZM104.602 26.002H106.942C107.496 26.002 107.956 25.8287 108.32 25.482C108.684 25.1353 108.866 24.702 108.866 24.182C108.866 23.662 108.684 23.22 108.32 22.856C107.956 22.492 107.496 22.31 106.942 22.31H104.602V26.002ZM155.966 37L151.13 31.202V37H147.204V17.5H151.13V28.654L154.926 24H159.58L154.796 29.876L160.724 37H155.966ZM167.076 37.286C165.065 37.286 163.41 36.6447 162.11 35.362C160.827 34.0793 160.186 32.45 160.186 30.474C160.186 28.5327 160.836 26.9207 162.136 25.638C163.453 24.3553 165.1 23.714 167.076 23.714C168.029 23.714 168.922 23.8787 169.754 24.208C170.603 24.5373 171.348 25.014 171.99 25.638C172.648 26.262 173.16 27.068 173.524 28.056C173.888 29.044 174.052 30.162 174.018 31.41H164.008C164.077 32.1207 164.389 32.7187 164.944 33.204C165.498 33.672 166.278 33.906 167.284 33.906C167.856 33.906 168.376 33.7933 168.844 33.568C169.312 33.3253 169.624 33.0307 169.78 32.684H173.888C173.472 34.0533 172.64 35.1627 171.392 36.012C170.144 36.8613 168.705 37.286 167.076 37.286ZM166.972 26.834C166.226 26.834 165.602 27.0247 165.1 27.406C164.614 27.7873 164.285 28.29 164.112 28.914H169.676C169.485 28.2033 169.13 27.6833 168.61 27.354C168.107 27.0073 167.561 26.834 166.972 26.834ZM176.454 37V24H180.38V25.95C180.588 25.3607 180.978 24.8667 181.55 24.468C182.122 24.052 182.763 23.844 183.474 23.844C183.924 23.844 184.349 23.896 184.748 24V27.978C184.141 27.77 183.56 27.666 183.006 27.666C182.174 27.666 181.524 27.9607 181.056 28.55C180.605 29.122 180.38 29.8847 180.38 30.838V37H176.454ZM191.964 37.286C190.23 37.286 188.8 36.8613 187.674 36.012C186.564 35.1453 185.975 34.062 185.906 32.762H190.04C190.074 33.2647 190.282 33.6547 190.664 33.932C191.045 34.192 191.522 34.322 192.094 34.322C193.064 34.322 193.55 34.0447 193.55 33.49C193.55 33.2127 193.437 33.0047 193.212 32.866C193.004 32.71 192.622 32.554 192.068 32.398L189.442 31.722C187.258 31.15 186.166 29.7893 186.166 27.64C186.166 26.4787 186.651 25.534 187.622 24.806C188.592 24.078 189.918 23.714 191.6 23.714C193.09 23.714 194.33 24.0867 195.318 24.832C196.323 25.56 196.878 26.5913 196.982 27.926H193.03C192.874 27.1287 192.371 26.73 191.522 26.73C190.638 26.73 190.196 27.0073 190.196 27.562C190.196 28.0473 190.638 28.3853 191.522 28.576L193.888 29.2C195.188 29.5467 196.124 30.0493 196.696 30.708C197.268 31.3667 197.554 32.2247 197.554 33.282C197.554 34.478 197.034 35.4487 195.994 36.194C194.954 36.922 193.61 37.286 191.964 37.286Z" fill="#011B31"/>
<path d="M127.501 35.336C126.167 36.636 124.555 37.286 122.665 37.286C120.776 37.286 119.164 36.636 117.829 35.336C116.495 34.0187 115.827 32.4067 115.827 30.5C115.827 28.5933 116.495 26.99 117.829 25.69C119.164 24.3727 120.776 23.714 122.665 23.714C124.555 23.714 126.167 24.3727 127.501 25.69C128.836 26.99 129.503 28.5933 129.503 30.5C129.503 32.4067 128.836 34.0187 127.501 35.336ZM120.585 32.762C121.14 33.334 121.833 33.62 122.665 33.62C123.497 33.62 124.182 33.334 124.719 32.762C125.274 32.19 125.551 31.436 125.551 30.5C125.551 29.564 125.274 28.81 124.719 28.238C124.182 27.666 123.497 27.38 122.665 27.38C121.833 27.38 121.14 27.666 120.585 28.238C120.048 28.81 119.779 29.564 119.779 30.5C119.779 31.436 120.048 32.19 120.585 32.762ZM142.787 35.336C141.452 36.636 139.84 37.286 137.951 37.286C136.061 37.286 134.449 36.636 133.115 35.336C131.78 34.0187 131.113 32.4067 131.113 30.5C131.113 28.5933 131.78 26.99 133.115 25.69C134.449 24.3727 136.061 23.714 137.951 23.714C139.84 23.714 141.452 24.3727 142.787 25.69C144.121 26.99 144.789 28.5933 144.789 30.5C144.789 32.4067 144.121 34.0187 142.787 35.336ZM135.871 32.762C136.425 33.334 137.119 33.62 137.951 33.62C138.783 33.62 139.467 33.334 140.005 32.762C140.559 32.19 140.837 31.436 140.837 30.5C140.837 29.564 140.559 28.81 140.005 28.238C139.467 27.666 138.783 27.38 137.951 27.38C137.119 27.38 136.425 27.666 135.871 28.238C135.333 28.81 135.065 29.564 135.065 30.5C135.065 31.436 135.333 32.19 135.871 32.762Z" fill="#3FB2E5"/>
<g clip-path="url(#clip0_43_456)">
<path d="M15.3585 17.8263L47 0C47 0 44.017 2.62739 44.1481 8.31471C44.288 14.3759 47 16.6298 47 16.6298L43.2819 14.9336L14.1755 26.3423C14.1755 26.3423 13.4688 24.3597 13.4573 22.8656C13.4273 19.1792 15.3585 17.8263 15.3585 17.8263Z" fill="#029DD1"/>
<path d="M8.62709 29.4799L43.1978 16.8184C43.1978 16.8184 40.2146 19.4457 40.3458 25.1334C40.4857 31.1945 43.1976 33.4481 43.1976 33.4481L38.3678 31.5866L7.33863 37.7024C7.33863 37.7024 6.737 35.8752 6.72561 34.5193C6.69624 30.8327 8.62709 29.4799 8.62709 29.4799Z" fill="#3FB2E5"/>
<path d="M1.90151 39.748L38.3768 33.1965C38.3768 33.1965 35.3938 35.8237 35.5249 41.5112C35.6648 47.5723 38.3768 49.8261 38.3768 49.8261H2.17378C2.17378 49.8261 0.0321555 48.5236 2.66284e-05 44.5982C-0.0293484 40.9114 1.90151 39.748 1.90151 39.748Z" fill="#3FB2E5"/>
</g>
<defs>
<clipPath id="clip0_43_456">
<rect width="47" height="50" fill="white"/>
</clipPath>
</defs>
</svg>
