<svg width="46" height="36" viewBox="0 0 46 36" fill="none" xmlns="http://www.w3.org/2000/svg">
<rect width="46" height="36" rx="5" transform="matrix(-1 0 0 1 46 0)" fill="#3FB2E5"/>
<path d="M21.0722 26.5157C21.3933 26.1928 21.5474 25.8027 21.5345 25.3453C21.5217 24.8879 21.3542 24.4978 21.0321 24.1749L16.4976 19.6143H34.3949C34.8496 19.6143 35.2311 19.4594 35.5393 19.1494C35.8475 18.8395 36.0011 18.4563 36 18C36 17.5426 35.8459 17.1589 35.5377 16.849C35.2295 16.539 34.8486 16.3846 34.3949 16.3856H16.4976L21.0722 11.7848C21.3933 11.4619 21.5538 11.0782 21.5538 10.6337C21.5538 10.1892 21.3933 9.8061 21.0722 9.4843C20.7512 9.16143 20.3697 9 19.9278 9C19.4858 9 19.1049 9.16143 18.7849 9.4843L11.4414 16.87C11.2809 17.0314 11.167 17.2063 11.0995 17.3946C11.0321 17.583 10.999 17.7848 11 18C11 18.2152 11.0337 18.417 11.1012 18.6054C11.1686 18.7937 11.282 18.9686 11.4414 19.13L18.8251 26.5561C19.1193 26.852 19.4869 27 19.9278 27C20.3687 27 20.7501 26.8386 21.0722 26.5157Z" fill="white"/>
</svg>
