<svg width="46" height="36" viewBox="0 0 46 36" fill="none" xmlns="http://www.w3.org/2000/svg">
<rect width="46" height="36" rx="5" fill="#3FB2E5"/>
<path d="M24.9278 26.5157C24.6067 26.1928 24.4526 25.8027 24.4655 25.3453C24.4783 24.8879 24.6458 24.4978 24.9679 24.1749L29.5024 19.6143H11.6051C11.1504 19.6143 10.7689 19.4594 10.4607 19.1494C10.1525 18.8395 9.99894 18.4563 10 18C10 17.5426 10.1541 17.1589 10.4623 16.849C10.7705 16.539 11.1514 16.3846 11.6051 16.3856H29.5024L24.9278 11.7848C24.6067 11.4619 24.4462 11.0782 24.4462 10.6337C24.4462 10.1892 24.6067 9.8061 24.9278 9.4843C25.2488 9.16143 25.6303 9 26.0722 9C26.5142 9 26.8951 9.16143 27.2151 9.4843L34.5586 16.87C34.7191 17.0314 34.833 17.2063 34.9005 17.3946C34.9679 17.583 35.001 17.7848 35 18C35 18.2152 34.9663 18.417 34.8988 18.6054C34.8314 18.7937 34.718 18.9686 34.5586 19.13L27.1749 26.5561C26.8807 26.852 26.5131 27 26.0722 27C25.6313 27 25.2499 26.8386 24.9278 26.5157Z" fill="white"/>
</svg>
