<svg width="474" height="474" viewBox="0 0 474 474" fill="none" xmlns="http://www.w3.org/2000/svg">
<g clip-path="url(#clip0_37_37)">
<path d="M406.603 294.028L460.669 350.316L222.928 469.556C222.928 469.556 191.822 485.109 177.009 460.669C117.759 364.387 406.603 294.028 406.603 294.028Z" fill="#256382"/>
<path d="M216.263 399.197C216.263 399.197 171.084 416.231 179.231 448.078C188.119 481.406 224.409 461.409 224.409 461.409L450.3 350.316C450.3 350.316 437.709 314.766 460.669 291.066L216.263 399.197Z" fill="#D9E3E8"/>
<path d="M254.775 65.9155L471.037 288.844L215.522 394.753L51.8438 123.684L254.775 65.9155Z" fill="#42ADE2"/>
<path d="M449.559 315.506L298.472 380.681L446.597 308.841L449.559 315.506ZM447.338 334.762L286.622 405.122L444.375 328.097L447.338 334.762ZM448.819 345.872L243.666 439.931L445.856 339.206L448.819 345.872Z" fill="#94989B"/>
<path d="M176.269 459.928C151.087 404.381 215.522 394.753 215.522 394.753L51.8438 123.684C51.8438 123.684 14.8125 122.944 14.8125 163.678C14.8125 180.712 22.2188 193.303 22.2188 193.303L176.269 459.928Z" fill="#428BC1"/>
<path d="M64.4344 238.481L10.3688 294.769L248.109 414.009C248.109 414.009 279.216 429.562 294.028 405.122C353.278 308.841 64.4344 238.481 64.4344 238.481Z" fill="#547725"/>
<path d="M254.034 343.65C254.034 343.65 299.212 360.684 291.066 392.531C282.178 425.859 246.628 405.863 246.628 405.863L20.7375 294.769C20.7375 294.769 33.3281 259.219 10.3688 235.519L254.034 343.65Z" fill="#D9E3E8"/>
<path d="M216.263 10.3687L0 233.297L255.516 339.206L419.194 68.1374L216.263 10.3687Z" fill="#83BF4F"/>
<path d="M23.7 253.294L171.825 325.134L20.7375 259.959L23.7 253.294ZM26.6625 272.55L183.675 349.575L22.9594 279.216L26.6625 272.55ZM25.1812 283.659L226.631 384.384L21.4781 290.325L25.1812 283.659Z" fill="#94989B"/>
<path d="M294.769 404.381C319.95 348.834 255.516 339.206 255.516 339.206L419.194 68.1374C419.194 68.1374 456.225 67.3968 456.225 108.131C456.225 125.166 448.819 137.756 448.819 137.756L294.769 404.381Z" fill="#699635"/>
<path d="M419.934 192.562L465.112 239.963L264.403 339.947C264.403 339.947 237.741 352.538 225.15 332.541C176.269 251.813 419.934 192.562 419.934 192.562Z" fill="#962C2C"/>
<path d="M259.219 281.437C259.219 281.437 220.706 295.509 228.113 322.912C235.519 351.056 265.884 334.022 265.884 334.022L456.225 239.962C456.225 239.962 445.856 210.337 465.113 190.341L259.219 281.437Z" fill="#D9E3E8"/>
<path d="M291.806 0L474 188.119L258.478 277.734L119.981 48.8812L291.806 0Z" fill="#ED4C5C"/>
<path d="M296.991 42.9563L332.541 82.2094L201.45 131.831L170.344 81.4688L296.991 42.9563Z" fill="white"/>
<path d="M456.225 211.078L328.838 265.144L453.263 204.413L456.225 211.078ZM454.744 227.372L318.469 285.881L451.781 220.706L454.744 227.372ZM456.225 236.259L282.919 315.506L452.522 229.594L456.225 236.259Z" fill="#94989B"/>
<path d="M225.891 332.541C205.153 285.881 259.219 277.734 259.219 277.734L119.981 48.8812C119.981 48.8812 88.1344 48.1405 88.1344 82.2093C88.1344 96.2812 94.0594 107.391 94.0594 107.391L225.891 332.541Z" fill="#C94747"/>
</g>
<defs>
<clipPath id="clip0_37_37">
<rect width="474" height="474" fill="white"/>
</clipPath>
</defs>
</svg>
